<?xml version="1.0" encoding="UTF-8" standalone="no"?>
<!DOCTYPE svg PUBLIC "-//W3C//DTD SVG 1.1//EN"
 "http://www.w3.org/Graphics/SVG/1.1/DTD/svg11.dtd">
<!-- Generated by graphviz version 13.1.2 (20250808.2320)
 -->
<!-- Pages: 1 -->
<svg width="1054pt" height="128pt"
 viewBox="0.00 0.00 1054.00 128.00" xmlns="http://www.w3.org/2000/svg" xmlns:xlink="http://www.w3.org/1999/xlink">
<g id="graph0" class="graph" transform="scale(1 1) rotate(0) translate(4 124)">
<polygon fill="white" stroke="none" points="-4,4 -4,-124 1050.13,-124 1050.13,4 -4,4"/>
<!-- 4339365312 -->
<g id="node1" class="node">
<title>4339365312</title>
<polygon fill="none" stroke="black" points="2.25,-83.5 2.25,-119.5 163.25,-119.5 163.25,-83.5 2.25,-83.5"/>
<text xml:space="preserve" text-anchor="middle" x="42.12" y="-96.7" font-family="Times,serif" font-size="14.00">data 2.0000</text>
<polyline fill="none" stroke="black" points="82,-84 82,-119.5"/>
<text xml:space="preserve" text-anchor="middle" x="122.62" y="-96.7" font-family="Times,serif" font-size="14.00">grad 0.0000</text>
</g>
<!-- 4341207824* -->
<g id="node4" class="node">
<title>4341207824*</title>
<ellipse fill="none" stroke="black" cx="228.5" cy="-73.5" rx="27" ry="18"/>
<text xml:space="preserve" text-anchor="middle" x="228.5" y="-68.45" font-family="Times,serif" font-size="14.00">*</text>
</g>
<!-- 4339365312&#45;&gt;4341207824* -->
<g id="edge6" class="edge">
<title>4339365312&#45;&gt;4341207824*</title>
<path fill="none" stroke="black" d="M163.61,-85.94C173.1,-84.1 182.4,-82.28 190.84,-80.64"/>
<polygon fill="black" stroke="black" points="191.49,-84.08 200.64,-78.73 190.16,-77.21 191.49,-84.08"/>
</g>
<!-- 4343504032 -->
<g id="node2" class="node">
<title>4343504032</title>
<polygon fill="none" stroke="black" points="291.5,-0.5 291.5,-36.5 459.25,-36.5 459.25,-0.5 291.5,-0.5"/>
<text xml:space="preserve" text-anchor="middle" x="334.75" y="-13.7" font-family="Times,serif" font-size="14.00">data 10.0000</text>
<polyline fill="none" stroke="black" points="378,-1 378,-36.5"/>
<text xml:space="preserve" text-anchor="middle" x="418.62" y="-13.7" font-family="Times,serif" font-size="14.00">grad 0.0000</text>
</g>
<!-- 4344162272+ -->
<g id="node9" class="node">
<title>4344162272+</title>
<ellipse fill="none" stroke="black" cx="522.25" cy="-45.5" rx="27" ry="18"/>
<text xml:space="preserve" text-anchor="middle" x="522.25" y="-40.45" font-family="Times,serif" font-size="14.00">+</text>
</g>
<!-- 4343504032&#45;&gt;4344162272+ -->
<g id="edge8" class="edge">
<title>4343504032&#45;&gt;4344162272+</title>
<path fill="none" stroke="black" d="M459.39,-33.97C468.21,-35.61 476.81,-37.22 484.66,-38.68"/>
<polygon fill="black" stroke="black" points="483.97,-42.11 494.44,-40.5 485.25,-35.23 483.97,-42.11"/>
</g>
<!-- 4341207824 -->
<g id="node3" class="node">
<title>4341207824</title>
<polygon fill="none" stroke="black" points="292.62,-55.5 292.62,-91.5 458.12,-91.5 458.12,-55.5 292.62,-55.5"/>
<text xml:space="preserve" text-anchor="middle" x="334.75" y="-68.7" font-family="Times,serif" font-size="14.00">data &#45;6.0000</text>
<polyline fill="none" stroke="black" points="376.88,-56 376.88,-91.5"/>
<text xml:space="preserve" text-anchor="middle" x="417.5" y="-68.7" font-family="Times,serif" font-size="14.00">grad 0.0000</text>
</g>
<!-- 4341207824&#45;&gt;4344162272+ -->
<g id="edge5" class="edge">
<title>4341207824&#45;&gt;4344162272+</title>
<path fill="none" stroke="black" d="M458.55,-57.62C467.65,-55.86 476.53,-54.14 484.62,-52.58"/>
<polygon fill="black" stroke="black" points="485.2,-56.03 494.36,-50.7 483.87,-49.16 485.2,-56.03"/>
</g>
<!-- 4341207824*&#45;&gt;4341207824 -->
<g id="edge1" class="edge">
<title>4341207824*&#45;&gt;4341207824</title>
<path fill="none" stroke="black" d="M255.74,-73.5C263.21,-73.5 271.82,-73.5 280.91,-73.5"/>
<polygon fill="black" stroke="black" points="280.68,-77 290.68,-73.5 280.68,-70 280.68,-77"/>
</g>
<!-- 4340026208 -->
<g id="node5" class="node">
<title>4340026208</title>
<polygon fill="none" stroke="black" points="0,-28.5 0,-64.5 165.5,-64.5 165.5,-28.5 0,-28.5"/>
<text xml:space="preserve" text-anchor="middle" x="42.12" y="-41.7" font-family="Times,serif" font-size="14.00">data &#45;3.0000</text>
<polyline fill="none" stroke="black" points="84.25,-29 84.25,-64.5"/>
<text xml:space="preserve" text-anchor="middle" x="124.88" y="-41.7" font-family="Times,serif" font-size="14.00">grad 0.0000</text>
</g>
<!-- 4340026208&#45;&gt;4341207824* -->
<g id="edge7" class="edge">
<title>4340026208&#45;&gt;4341207824*</title>
<path fill="none" stroke="black" d="M165.7,-61.89C174.5,-63.54 183.08,-65.16 190.92,-66.63"/>
<polygon fill="black" stroke="black" points="190.22,-70.06 200.7,-68.47 191.51,-63.18 190.22,-70.06"/>
</g>
<!-- 4344162752 -->
<g id="node6" class="node">
<title>4344162752</title>
<polygon fill="none" stroke="black" points="885.13,-27.5 885.13,-63.5 1046.13,-63.5 1046.13,-27.5 885.13,-27.5"/>
<text xml:space="preserve" text-anchor="middle" x="925" y="-40.7" font-family="Times,serif" font-size="14.00">data 4.0000</text>
<polyline fill="none" stroke="black" points="964.88,-28 964.88,-63.5"/>
<text xml:space="preserve" text-anchor="middle" x="1005.5" y="-40.7" font-family="Times,serif" font-size="14.00">grad 0.0000</text>
</g>
<!-- 4344162752ReLU -->
<g id="node7" class="node">
<title>4344162752ReLU</title>
<ellipse fill="none" stroke="black" cx="815.69" cy="-45.5" rx="33.44" ry="18"/>
<text xml:space="preserve" text-anchor="middle" x="815.69" y="-40.45" font-family="Times,serif" font-size="14.00">ReLU</text>
</g>
<!-- 4344162752ReLU&#45;&gt;4344162752 -->
<g id="edge2" class="edge">
<title>4344162752ReLU&#45;&gt;4344162752</title>
<path fill="none" stroke="black" d="M849.52,-45.5C856.86,-45.5 864.99,-45.5 873.44,-45.5"/>
<polygon fill="black" stroke="black" points="873.18,-49 883.18,-45.5 873.18,-42 873.18,-49"/>
</g>
<!-- 4344162272 -->
<g id="node8" class="node">
<title>4344162272</title>
<polygon fill="none" stroke="black" points="585.25,-27.5 585.25,-63.5 746.25,-63.5 746.25,-27.5 585.25,-27.5"/>
<text xml:space="preserve" text-anchor="middle" x="625.12" y="-40.7" font-family="Times,serif" font-size="14.00">data 4.0000</text>
<polyline fill="none" stroke="black" points="665,-28 665,-63.5"/>
<text xml:space="preserve" text-anchor="middle" x="705.62" y="-40.7" font-family="Times,serif" font-size="14.00">grad 0.0000</text>
</g>
<!-- 4344162272&#45;&gt;4344162752ReLU -->
<g id="edge4" class="edge">
<title>4344162272&#45;&gt;4344162752ReLU</title>
<path fill="none" stroke="black" d="M746.35,-45.5C754.71,-45.5 762.97,-45.5 770.7,-45.5"/>
<polygon fill="black" stroke="black" points="770.46,-49 780.46,-45.5 770.46,-42 770.46,-49"/>
</g>
<!-- 4344162272+&#45;&gt;4344162272 -->
<g id="edge3" class="edge">
<title>4344162272+&#45;&gt;4344162272</title>
<path fill="none" stroke="black" d="M549.53,-45.5C556.65,-45.5 564.77,-45.5 573.33,-45.5"/>
<polygon fill="black" stroke="black" points="573.29,-49 583.29,-45.5 573.29,-42 573.29,-49"/>
</g>
</g>
</svg>
